<svg width="60" height="60" viewBox="0 0 60 60" fill="none" xmlns="http://www.w3.org/2000/svg">
<path d="M29.9653 60.0006C28.8898 60.0006 27.8151 59.9428 26.7457 59.8275C25.7656 59.7274 24.7975 59.5632 23.8424 59.3639C23.6575 59.3253 23.4726 59.2845 23.2877 59.2418C17.6604 57.9605 12.522 55.083 8.48869 50.9545C8.11363 50.57 7.74646 50.1742 7.38742 49.767C-3.50762 37.258 -2.20011 18.2844 10.3079 7.38837C22.2827 -3.04322 40.3078 -2.3491 51.4451 8.97234C51.821 9.35681 52.188 9.75268 52.5464 10.1598C57.3546 15.6359 60.0043 22.6757 60 29.9634C60 46.5527 46.553 60.0007 29.9653 60.0006ZM9.82323 49.4526C9.98141 49.6168 10.1456 49.774 10.3068 49.9332C10.493 50.1165 10.6782 50.3007 10.8684 50.4779C11.0356 50.6341 11.2078 50.7843 11.379 50.9365C11.5722 51.1077 11.7645 51.2789 11.9627 51.4441C12.1369 51.5913 12.3161 51.7325 12.4943 51.8746C12.6945 52.0348 12.8948 52.195 13.101 52.3492C13.2832 52.4864 13.4684 52.6196 13.6546 52.7497C13.8619 52.8979 14.0701 53.0501 14.2814 53.1883C14.4706 53.3164 14.6618 53.4406 14.854 53.5637C15.0683 53.7009 15.2835 53.8361 15.5008 53.9642C15.6964 54.081 15.8932 54.1959 16.0914 54.3087C16.3131 54.4348 16.5356 54.558 16.7592 54.6781C16.9594 54.7849 17.1597 54.8894 17.3599 54.9915C17.5882 55.1067 17.8184 55.2178 18.0497 55.3269C18.2499 55.422 18.4582 55.5172 18.6644 55.6073C18.8997 55.7074 19.138 55.8075 19.3762 55.9076C19.5835 55.9928 19.7897 56.0759 19.9989 56.156C20.2412 56.2481 20.4865 56.3342 20.7318 56.4203C20.941 56.4934 21.1503 56.5665 21.3625 56.6356C21.6118 56.7157 21.8631 56.7897 22.1154 56.8628C22.3266 56.9239 22.5359 56.987 22.7481 57.0441C22.8292 57.0651 22.9103 57.0821 22.9914 57.1031C20.028 54.2254 17.8288 50.654 16.593 46.7122C14.2168 47.339 11.9164 48.2244 9.73312 49.3525C9.76616 49.3876 9.7942 49.4226 9.82323 49.4526ZM8.38357 47.8406C10.7885 46.5375 13.3387 45.5225 15.9813 44.8169C14.6858 40.3118 14.0058 35.6521 13.96 30.9647H1.95617C2.1743 37.146 4.43452 43.0806 8.38357 47.8406ZM8.38357 12.0862C4.43477 16.8464 2.17455 22.781 1.95617 28.9622H13.96C14.0058 24.2747 14.6857 19.6151 15.9813 15.11C13.3388 14.4041 10.7886 13.3892 8.38357 12.0862ZM22.7421 2.87877C22.5399 2.92983 22.3306 2.99591 22.1224 3.05699C21.8691 3.13108 21.6148 3.20517 21.3645 3.28627C21.1533 3.35436 20.945 3.42745 20.7368 3.50054C20.4905 3.58564 20.2442 3.67275 20.0009 3.76587C19.7927 3.84497 19.5875 3.92807 19.3812 4.01218C19.142 4.1123 18.9027 4.21242 18.6654 4.31255C18.4612 4.40266 18.2579 4.4954 18.0557 4.59089C17.8224 4.70103 17.5902 4.81317 17.3549 4.92931C17.1547 5.02944 16.9544 5.12956 16.7542 5.2387C16.5279 5.35985 16.3037 5.484 16.0794 5.61216C15.8792 5.7233 15.689 5.83744 15.4958 5.95359C15.2755 6.08575 15.0593 6.22192 14.843 6.36109C14.6528 6.48224 14.4626 6.6054 14.2754 6.73155C14.0621 6.87573 13.8509 7.02592 13.6416 7.17611C13.4584 7.30727 13.2752 7.43843 13.095 7.5766C12.8878 7.7328 12.6845 7.894 12.4823 8.0562C12.3051 8.19737 12.1289 8.33755 11.9557 8.48273C11.7555 8.64893 11.5622 8.82215 11.368 8.99436C11.1978 9.14555 11.0266 9.29474 10.8604 9.44893C10.6692 9.62715 10.484 9.81238 10.2978 9.99561C10.1366 10.1548 9.9724 10.312 9.81422 10.4752C9.78518 10.5062 9.75715 10.5383 9.72812 10.5683C11.9113 11.697 14.2117 12.5827 16.588 13.2096C17.8241 9.26795 20.0231 5.69664 22.9864 2.81869C22.9053 2.83972 22.8232 2.85674 22.7421 2.87877ZM28.9643 2.00768C24.6803 2.61644 20.925 7.088 18.5623 13.6912C21.9782 14.4562 25.4641 14.8665 28.9643 14.9157V2.00768ZM28.9643 16.9182C25.2512 16.8694 21.5539 16.4283 17.9336 15.6026C16.6765 19.9463 16.0134 24.4404 15.9623 28.9622H28.9643V16.9182ZM28.9643 30.9647H15.9623C16.0132 35.4864 16.6764 39.9805 17.9336 44.3243C21.5539 43.4986 25.2514 43.0576 28.9643 43.0086V30.9647ZM28.9643 45.0111C25.464 45.0599 21.9782 45.4703 18.5623 46.2356C20.925 52.8388 24.6803 57.3104 28.9643 57.9191V45.0111ZM51.5473 47.8406C55.4961 43.0805 57.7563 37.1458 57.9747 30.9647H45.9708C45.925 35.6521 45.2451 40.3118 43.9495 44.8169C46.5921 45.5229 49.1423 46.5378 51.5473 47.8406ZM37.1807 57.0491C37.391 56.997 37.6002 56.9309 37.8084 56.8698C38.0617 56.7958 38.316 56.7217 38.5663 56.6406C38.7776 56.5725 38.9858 56.4994 39.194 56.4263C39.4403 56.3412 39.6866 56.2541 39.9299 56.161C40.1381 56.0819 40.3434 55.9988 40.5496 55.9147C40.7889 55.8145 41.0282 55.7144 41.2654 55.6143C41.4697 55.5242 41.6729 55.4314 41.8751 55.3359C42.1084 55.2258 42.3407 55.1137 42.5759 54.9975C42.7762 54.8974 42.9764 54.7973 43.1766 54.6881C43.4029 54.567 43.6271 54.4428 43.8514 54.3147C44.0516 54.2035 44.2419 54.0894 44.4351 53.9732C44.6553 53.8411 44.8716 53.7049 45.0878 53.5657C45.278 53.4446 45.4683 53.3214 45.6555 53.1953C45.8687 53.0511 46.079 52.9019 46.2882 52.7517C46.4724 52.6206 46.6556 52.4884 46.8368 52.3512C47.0431 52.196 47.2453 52.0348 47.4485 51.8726C47.6247 51.7325 47.802 51.5923 47.9752 51.4461C48.1754 51.2799 48.3686 51.1067 48.5628 50.9345C48.733 50.7833 48.9042 50.6341 49.0704 50.4799C49.2616 50.3017 49.4468 50.1165 49.6331 49.9332C49.7942 49.774 49.9584 49.6168 50.1166 49.4536C50.1457 49.4226 50.1737 49.3906 50.2027 49.3605C48.0196 48.2319 45.7192 47.3461 43.3428 46.7192C42.1044 50.6614 39.9025 54.2324 36.9364 57.1091C37.0175 57.0881 37.0996 57.0711 37.1807 57.0491ZM30.9666 57.9191C35.2505 57.3104 39.0058 52.8388 41.3685 46.2356C37.9526 45.4707 34.4667 45.0603 30.9666 45.0111V57.9191ZM30.9666 43.0086C34.6796 43.0574 38.377 43.4985 41.9973 44.3243C43.2543 39.9805 43.9175 35.4864 43.9685 30.9647H30.9666V43.0086ZM30.9666 28.9622H43.9685C43.9176 24.4404 43.2545 19.9463 41.9973 15.6026C38.377 16.4282 34.6796 16.8693 30.9666 16.9182V28.9622ZM30.9666 2.00768V14.9157C34.4669 14.8669 37.9526 14.4565 41.3685 13.6912C39.0058 7.088 35.2505 2.61644 30.9666 2.00768ZM50.1076 10.4742C49.9494 10.311 49.7862 10.1538 49.6251 9.99461C49.4388 9.81138 49.2526 9.62615 49.0614 9.44793C48.8952 9.29273 48.724 9.14755 48.5538 8.99236C48.3596 8.82015 48.1664 8.64793 47.9681 8.48173C47.7929 8.33554 47.6147 8.19437 47.4365 8.05219C47.2363 7.892 47.0361 7.73179 46.8298 7.5776C46.6476 7.44043 46.4624 7.30727 46.2762 7.17711C46.069 7.02892 45.8607 6.87673 45.6495 6.73856C45.4603 6.6104 45.269 6.48625 45.0768 6.3641C44.8626 6.22592 44.6467 6.09238 44.4291 5.9636C44.2288 5.84645 44.0376 5.73231 43.8404 5.61917C43.6188 5.49301 43.3959 5.36986 43.1716 5.24971C42.9714 5.14296 42.7712 5.03845 42.5709 4.93632C42.3427 4.82118 42.1124 4.71004 41.8811 4.6009C41.6809 4.50579 41.4727 4.41067 41.2664 4.32056C41.0312 4.22043 40.7929 4.12031 40.5546 4.02019C40.3474 3.93608 40.1411 3.85197 39.9329 3.77288C39.6886 3.67976 39.4433 3.59265 39.197 3.50755C38.9888 3.43446 38.7806 3.36136 38.5693 3.29328C38.319 3.21218 38.0687 3.13809 37.8135 3.065C37.6042 3.00292 37.394 2.94084 37.1827 2.88377C37.1016 2.86274 37.0205 2.84573 36.9394 2.8247C39.9029 5.7024 42.102 9.27384 43.3378 13.2156C45.7141 12.5888 48.0144 11.7035 50.1977 10.5753C50.1647 10.5393 50.1366 10.5042 50.1076 10.4742ZM51.5473 12.0862C49.1424 13.3893 46.5922 14.4043 43.9495 15.11C45.245 19.6151 45.925 24.2747 45.9708 28.9622H57.9747C57.7567 22.781 55.4963 16.8462 51.5473 12.0862Z" fill="#7F551C"/>
</svg>
